<?xml version="1.0" encoding="UTF-8" standalone="no"?>
<svg
   xmlns:dc="http://purl.org/dc/elements/1.1/"
   xmlns:cc="http://creativecommons.org/ns#"
   xmlns:rdf="http://www.w3.org/1999/02/22-rdf-syntax-ns#"
   xmlns:svg="http://www.w3.org/2000/svg"
   xmlns="http://www.w3.org/2000/svg"
   id="svg9551"
   version="1.1"
   viewBox="0 0 32.000001 32.000003"
   height="32mm"
   width="32mm">
  <defs
     id="defs9545">
    <clipPath
       id="clipPath8909"
       clipPathUnits="userSpaceOnUse">
      <path
         id="path8907"
         d="M 0,595.276 H 841.89 V 0 H 0 Z" />
    </clipPath>
  </defs>
  <metadata
     id="metadata9548">
    <rdf:RDF>
      <cc:Work
         rdf:about="">
        <dc:format>image/svg+xml</dc:format>
        <dc:type
           rdf:resource="http://purl.org/dc/dcmitype/StillImage" />
        <dc:title></dc:title>
      </cc:Work>
    </rdf:RDF>
  </metadata>
  <g
     transform="translate(0,-264.99999)"
     id="layer1">
    <g
       id="g8903"
       transform="matrix(0.35277777,0,0,-0.35277777,-44.934526,132.88098)">
      <path
         id="path8951"
         style="fill:#ffffff;fill-opacity:1;fill-rule:nonzero;stroke:none;stroke-width:1.02328086"
         d="m 205.12557,-416.69609 c -1.64441,8.7337 -9.30469,15.34513 -18.52138,15.34513 -3.53237,0 -6.82938,-0.97929 -9.65159,-2.67282 2.00665,-2.40982 3.43618,-5.31389 4.04503,-8.51574 1.56357,1.16961 3.4986,1.87056 5.60247,1.87056 4.64876,0 8.49732,-3.38808 9.23715,-7.8281 l -14.24887,-0.0395 c 0.13175,-1.63583 0.85727,-3.78771 1.94006,-5.00124 l 11.78591,0.0541 h 2.63803 7.20696 c 0.18829,1.06831 0.30494,2.16117 0.30494,3.28372 0,1.19928 -0.12381,2.36787 -0.33871,3.50371" />
      <g
         style="fill:#ffffff;fill-opacity:1"
         id="g8953"
         transform="matrix(1.0232809,0,0,1.0232809,193.01106,-426.87241)">
        <path
           d="M 0,0 C -0.009,-0.008 -0.018,-0.015 -0.026,-0.022 -0.313,-0.29 -0.616,-0.54 -0.937,-0.77 -0.953,-0.782 -0.97,-0.795 -0.986,-0.807 -1.119,-0.9 -1.255,-0.989 -1.393,-1.076 c -0.086,-0.055 -0.174,-0.108 -0.263,-0.16 -0.119,-0.07 -0.239,-0.14 -0.361,-0.204 -0.205,-0.109 -0.414,-0.21 -0.629,-0.303 -0.079,-0.034 -0.161,-0.063 -0.242,-0.095 -0.167,-0.066 -0.336,-0.129 -0.508,-0.185 -0.097,-0.033 -0.196,-0.064 -0.295,-0.092 -0.166,-0.049 -0.334,-0.091 -0.503,-0.13 -0.619,-0.144 -1.261,-0.226 -1.921,-0.236 -0.039,-0.001 -0.076,-0.008 -0.115,-0.008 -0.004,0 -0.008,10e-4 -0.012,0.002 -0.008,0 -0.016,-0.002 -0.024,-0.002 -0.001,0 -0.003,10e-4 -0.004,10e-4 -4.188,10e-4 -7.711,2.816 -8.802,6.656 -0.041,0.143 -0.083,0.306 -0.126,0.492 -0.019,0.08 -0.038,0.159 -0.054,0.239 -0.154,0.724 -0.309,1.74 -0.411,3.141 -0.151,2.09 -0.519,4.183 -1.379,6.094 -0.577,1.282 -1.296,2.483 -2.136,3.586 -0.025,-0.052 -0.051,-0.088 -0.076,-0.128 0.023,0.042 0.047,0.084 0.066,0.129 -0.265,0.346 -0.534,0.69 -0.822,1.017 0.001,0.001 0.001,0.002 0.002,0.003 l -0.009,0.009 c -3.937,4.451 -9.973,7.031 -16.571,6.063 -8.184,-1.199 -14.712,-8.015 -15.565,-16.244 -1.15,-11.079 7.501,-20.396 18.319,-20.396 3.382,0 6.53,0.915 9.231,2.489 -1.978,2.403 -3.381,5.296 -3.956,8.487 -1.489,-1.063 -3.297,-1.702 -5.275,-1.702 -5.388,0 -9.682,4.663 -9.067,10.201 0.441,3.983 3.608,7.322 7.566,7.952 3.758,0.599 7.154,-1.1 9.073,-3.879 0.979,-1.468 1.575,-3.234 1.575,-5.127 V 6.53 c 0,-4.127 1.375,-7.921 3.653,-10.989 0.023,-0.031 0.046,-0.062 0.069,-0.093 0.017,-0.022 0.033,-0.044 0.05,-0.066 0.002,-0.002 0.003,-0.003 0.004,-0.005 l 0.019,-0.025 0.001,0.002 c 0.224,-0.291 0.462,-0.574 0.703,-0.85 l -0.003,-0.005 0.102,-0.115 c 0.006,-0.007 0.012,-0.015 0.018,-0.021 0.004,-0.005 0.009,-0.009 0.011,-0.012 l 0.12,-0.134 0.004,0.007 c 3.378,-3.745 8.231,-6.115 13.67,-6.115 7.87,0 14.572,4.935 17.209,11.891 z"
           style="fill:#ffffff;fill-opacity:1;fill-rule:nonzero;stroke:none"
           id="path8955" />
      </g>
    </g>
  </g>
</svg>
